# xmcd
#
# Track frame offsets: 
#        150
#        18838
#        42211
#        61753
#        85064
#        100197
#        117495
#        135488
#        155040
#        168406
#        187450
#        202665
#        224381
#        245493
#        268076
#
# Disc length: 3859 seconds
#
# Revision: 0
# Processed by: cddbd v1.4PL0 Copyright (c) Steve Scherf et al.
# Submitted via: ExactAudioCopy v0.90a11
#
DISCID=d00f110f
DTITLE=Sean Ardoin and Zydekool - Pullin
DYEAR=1900
DGENRE=
TTITLE0=Pullin
TTITLE1=Zydekool Rollin
TTITLE2=Shut'em Down
TTITLE3=Mama
TTITLE4=Forget About It
TTITLE5=New School - Old School
TTITLE6=Creole Girl
TTITLE7=Not A Booty Call
TTITLE8=Two Fingers In The Air
TTITLE9=Whoa
TTITLE10=I Fell Alright
TTITLE11=Ooh Ooh
TTITLE12=Do It
TTITLE13=Freaky Deaky
TTITLE14=Brother-In-Law
EXTD=
EXTT0=
EXTT1=
EXTT2=
EXTT3=
EXTT4=
EXTT5=
EXTT6=
EXTT7=
EXTT8=
EXTT9=
EXTT10=
EXTT11=
EXTT12=
EXTT13=
EXTT14=
PLAYORDER=
